<?xml version="1.0" standalone="no"?>
<!DOCTYPE svg PUBLIC "-//W3C//DTD SVG 20010904//EN"
 "http://www.w3.org/TR/2001/REC-SVG-20010904/DTD/svg10.dtd">
<svg version="1.0" xmlns="http://www.w3.org/2000/svg"
 width="400.000000pt" height="400.000000pt" viewBox="0 0 400.000000 400.000000"
 preserveAspectRatio="xMidYMid meet">
<metadata>
Created by potrace 1.14, written by Peter Selinger 2001-2017
</metadata>
<g transform="translate(0.000000,400.000000) scale(0.100000,-0.100000)"
fill="#000000" stroke="none">
<path d="M1865 3308 c-81 -139 -157 -269 -167 -288 -11 -19 -59 -100 -106
-180 -46 -80 -93 -158 -102 -175 -154 -264 -260 -447 -422 -725 -12 -19 -82
-138 -156 -265 -74 -126 -144 -247 -156 -267 -11 -21 -50 -88 -86 -149 -36
-62 -72 -124 -80 -138 -8 -14 -47 -80 -85 -146 -39 -66 -74 -127 -80 -137 -5
-10 -41 -70 -79 -135 -38 -65 -84 -144 -102 -175 l-33 -58 387 -1 c345 0 1262
-5 2700 -12 266 -2 485 -1 486 1 2 2 -34 69 -80 149 -46 80 -84 146 -84 148 0
3 -155 272 -170 295 -6 8 -13 22 -17 30 -4 8 -38 69 -76 135 -39 66 -81 140
-95 165 -14 25 -76 133 -137 240 -61 107 -127 222 -145 255 -18 33 -44 77 -57
97 -12 21 -23 40 -23 44 0 3 -8 18 -19 32 -10 15 -31 50 -45 77 -15 28 -37 66
-48 85 -33 57 -339 591 -366 639 -14 25 -38 67 -53 93 -16 27 -29 51 -29 54 0
3 -16 30 -35 60 -19 30 -35 56 -35 58 0 2 -23 43 -51 92 -29 49 -85 147 -126
219 -41 71 -75 131 -77 133 -2 1 -70 -111 -151 -250z"/>
</g>
</svg>
